<svg xmlns="http://www.w3.org/2000/svg" viewBox="0 0 240 48" fill="none">
  <!-- Brain-circuit icon -->
  <g transform="translate(4, 4)" stroke="#14B8A6" stroke-width="1.8" fill="none" stroke-linecap="round" stroke-linejoin="round">
    <!-- Brain outline left -->
    <path d="M16 8c-2-3-6-4-9-2s-4 6-2 9c-3 1-5 4-4 7s4 5 7 4c1 3 4 5 7 4"/>
    <!-- Brain outline right -->
    <path d="M24 8c2-3 6-4 9-2s4 6 2 9c3 1 5 4 4 7s-4 5-7 4c-1 3-4 5-7 4"/>
    <!-- Circuit nodes -->
    <circle cx="20" cy="12" r="2" fill="#14B8A6"/>
    <circle cx="14" cy="20" r="1.5" fill="#14B8A6"/>
    <circle cx="26" cy="20" r="1.5" fill="#14B8A6"/>
    <circle cx="20" cy="28" r="1.5" fill="#14B8A6"/>
    <!-- Circuit lines -->
    <line x1="20" y1="14" x2="20" y2="26"/>
    <line x1="16" y1="19" x2="24" y2="19"/>
    <line x1="16" y1="22" x2="18" y2="26"/>
    <line x1="24" y1="22" x2="22" y2="26"/>
  </g>
  <!-- Text -->
  <text x="52" y="22" font-family="system-ui, -apple-system, sans-serif" font-size="15" font-weight="800" letter-spacing="1.5" fill="#F8FAFC">AI</text>
  <text x="76" y="22" font-family="system-ui, -apple-system, sans-serif" font-size="15" font-weight="400" letter-spacing="1.5" fill="#14B8A6">THINK</text>
  <text x="52" y="40" font-family="system-ui, -apple-system, sans-serif" font-size="15" font-weight="400" letter-spacing="1.5" fill="#14B8A6">TANK</text>
</svg>
